<svg xmlns="http://www.w3.org/2000/svg" aria-hidden="true" style="position:absolute;width:0;height:0;overflow:hidden">
  <defs>
    <!-- Section -->
    <symbol id="icon-antenna" viewBox="0 0 32 32">
      <path fill="#2e2f42"
        d="m30.773 22.098-8.443-8.505.937-4.615c.242.094.499.144.758.146h.006a2.159 2.159 0 1 0-2.008-1.435l-4.96.605L8.972.161a.534.534 0 0 0-.377-.16.532.532 0 0 0-.373.155L6.709 1.66a.534.534 0 0 0 0 .754l.814.826a14.943 14.943 0 0 0 2.519 17.663.513.513 0 0 0 .146.098c-.034.18-.051.364-.052.547v6.187h-6.4a2.67 2.67 0 0 0-2.667 2.667v1.067c0 .295.239.533.533.533h24.533a.533.533 0 0 0 .533-.533v-1.067a2.67 2.67 0 0 0-2.667-2.667h-6.4v-2.742a15.09 15.09 0 0 0 3.049.32 14.854 14.854 0 0 0 7.04-1.783l.818.823a.534.534 0 0 0 .377.16.532.532 0 0 0 .373-.155l1.513-1.504a.534.534 0 0 0 0-.754zM23.28 6.233a1.067 1.067 0 1 1 .753 1.822h-.003a1.067 1.067 0 0 1-.747-1.823h-.002zm-1.256 3.505-.598 2.946-1.175-1.182 1.774-1.763zm-.605-.902-1.92 1.909-1.485-1.493 3.405-.415zM24.004 28.8a1.6 1.6 0 0 1 1.6 1.6v.533H2.137V30.4a1.6 1.6 0 0 1 1.6-1.6h20.267zm-7.467-2.133v1.067h-5.333v-1.067h5.333zM11.204 25.6v-4.053c0-1.294 1.196-2.347 2.667-2.347s2.667 1.053 2.667 2.347V25.6h-5.333zm6.4-1.696v-2.357c0-1.882-1.675-3.413-3.733-3.413a3.8 3.8 0 0 0-3.281 1.786A13.87 13.87 0 0 1 8.311 4.033l18.602 18.708a13.818 13.818 0 0 1-9.309 1.163zm11.289-.684L7.836 2.039l.755-.752 7.935 7.98c.004 0 .006.007.01.01l13.115 13.191-.757.752z"
        style="fill:var(--color1, #2e2f42)" />
      <path fill="#4d5ae5"
        d="M13.876 20.267h-.005a1.6 1.6 0 1 0-.004 3.2h.005a1.6 1.6 0 1 0 .004-3.2zm.373 1.978a.534.534 0 0 1-.752-.756.534.534 0 0 1 .373-.155.534.534 0 0 1 .374.911h.005z"
        style="fill:var(--color2, #4d5ae5)" />
    </symbol>
    <symbol id="icon-burger-menu" viewBox="0 0 32 32">
      <path fill="#ae1332" style="fill: var(--color1, #ae1332)" d="M2.667 7.993c0-0.733 0.595-1.327 1.327-1.327h10.68c0.733 0 1.327 0.594 1.327 1.327s-0.594 1.327-1.327 1.327h-10.68c-0.733 0-1.327-0.594-1.327-1.327v0zM2.667 16c0-0.733 0.595-1.327 1.327-1.327h24.013c0.733 0 1.327 0.594 1.327 1.327s-0.594 1.327-1.327 1.327h-24.013c-0.733 0-1.327-0.594-1.327-1.327v0zM3.993 22.68c-0.733 0-1.327 0.594-1.327 1.327s0.594 1.327 1.327 1.327h16.013c0.733 0 1.327-0.594 1.327-1.327s-0.594-1.327-1.327-1.327h-16.013z"></path>
    </symbol>
    <symbol id="icon-Vector" viewBox="0 0 30 32">
       <path d="M29.867 4.588l-4.425-4.425v22.123l-22.123-22.123-3.319 3.319 22.124 22.123h-22.124l4.425 4.425h25.442v-25.442z"></path>
    </symbol>
    <symbol id="icon-basket" viewBox="0 0 32 32">
      <path d="M25.334 9.334h-4v-1.334c0-2.946-2.388-5.334-5.334-5.334s-5.334 2.388-5.334 5.334v0 1.334h-4c-0.736 0.001-1.332 0.597-1.333 1.332v14.668c0 2.209 1.791 4 4 4v0h13.333c2.209 0 4-1.791 4-4v0-14.667c-0.001-0.736-0.597-1.332-1.332-1.333h-0zM13.334 8c0.043-1.439 1.221-2.589 2.666-2.589s2.623 1.15 2.666 2.585l0 0.004v1.334h-5.333v-1.334zM24 25.334c0 0.736-0.597 1.333-1.333 1.333-0 0-0.001 0-0.001 0h-13.332c-0.736 0-1.333-0.596-1.334-1.332v-13.334h2.666v1.334c0 0.737 0.597 1.334 1.334 1.334s1.334-0.597 1.334-1.334v0-1.334h5.333v1.334c0 0.737 0.597 1.334 1.334 1.334s1.334-0.597 1.334-1.334v0-1.334h2.666v13.334z"></path>
    </symbol>
    <symbol id="icon-logo" viewBox="0 0 277 32">
      <path fill="#ae1332" style="fill: var(--color1, #ae1332)" d="M25.851 2.057h-3.564c-0.005-0-0.012-0-0.018-0-1.082 0-1.961 0.871-1.973 1.951v3.493c0.012 1.081 0.891 1.952 1.973 1.952 0.006 0 0.013-0 0.019-0h3.563c0.005 0 0.012 0 0.018 0 1.082 0 1.961-0.871 1.973-1.951v-3.493c-0.012-1.081-0.891-1.952-1.973-1.952-0.006 0-0.013 0-0.019 0h0.001zM5.982 22.258h-3.838c-1.184 0-2.144 0.875-2.144 1.952v3.492c0 1.079 0.96 1.952 2.144 1.952h3.84c1.182 0 2.142-0.873 2.142-1.952v-3.492c0-1.079-0.96-1.952-2.144-1.952zM5.556 12.071h-3.564c-1.1 0-1.991 0.876-1.991 1.956v3.492c0.012 1.081 0.891 1.952 1.973 1.952 0.006 0 0.013-0 0.019-0h3.563c1.099 0 1.991-0.875 1.991-1.952v-3.492c0-1.079-0.892-1.952-1.991-1.952zM15.792 22.204h-3.564c-1.099 0-1.991 0.871-1.991 1.95v3.492c0.012 1.081 0.891 1.952 1.973 1.952 0.006 0 0.013-0 0.019-0h3.563c0.005 0 0.012 0 0.018 0 1.082 0 1.961-0.871 1.973-1.951v-3.493c-0.012-1.081-0.891-1.952-1.973-1.952-0.006 0-0.013 0-0.019 0h0.001zM5.556 1.854h-3.564c-1.1 0-1.991 0.875-1.991 1.952v3.492c0.012 1.081 0.891 1.952 1.973 1.952 0.006 0 0.013-0 0.019-0h3.563c0.005 0 0.012 0 0.018 0 1.082 0 1.961-0.871 1.973-1.951v-3.493c0-1.077-0.892-1.952-1.991-1.952zM16.068 12.176h-3.564c-1.099 0-1.991 0.873-1.991 1.95v3.493c0.012 1.081 0.891 1.952 1.973 1.952 0.006 0 0.013-0 0.019-0h3.563c1.1 0 1.991-0.875 1.991-1.952v-3.493c0-1.077-0.891-1.95-1.991-1.95zM26.075 22.204h-3.564c-1.1 0-1.991 0.871-1.991 1.95v3.492c0.012 1.081 0.891 1.952 1.973 1.952 0.006 0 0.013-0 0.019-0h3.563c0.005 0 0.012 0 0.018 0 1.082 0 1.961-0.871 1.973-1.951v-3.493c0-1.079-0.892-1.952-1.991-1.952zM15.636 1.977h-3.563c-1.1 0-1.991 0.873-1.991 1.952v3.492c0.012 1.081 0.891 1.952 1.973 1.952 0.006 0 0.013-0 0.019-0h3.562c0.005 0 0.012 0 0.018 0 1.082 0 1.961-0.871 1.973-1.951v-3.493c0-1.079-0.891-1.952-1.991-1.952zM25.817 12.379h-3.564c-1.099 0-1.991 0.873-1.991 1.952v3.492c0.012 1.081 0.891 1.952 1.973 1.952 0.006 0 0.013-0 0.019-0h3.563c1.099 0 1.991-0.873 1.991-1.952v-3.492c0-1.079-0.892-1.952-1.991-1.952zM44.921 24.889v-17.422h11.25v2.564h-8.064v4.878h6.521v2.514h-6.521v7.467h-3.186zM57.632 24.889v-17.422h6.398c1.394 0 2.539 0.24 3.435 0.722 0.912 0.464 1.593 1.102 2.041 1.916 0.448 0.796 0.672 1.684 0.672 2.663 0 1.061-0.283 2.032-0.846 2.912-0.548 0.88-1.412 1.518-2.588 1.916l3.609 7.292h-3.659l-3.236-6.869h-2.64v6.869h-3.186zM60.82 15.68h3.012c1.061 0 1.842-0.258 2.34-0.772 0.498-0.516 0.747-1.195 0.747-2.041 0-0.83-0.249-1.493-0.747-1.991-0.48-0.498-1.269-0.747-2.364-0.747h-2.987v5.55zM72.142 24.889v-17.422h11.374v2.564h-8.187v4.779h7.44v2.489h-7.44v5.028h8.187v2.564h-11.374zM91.484 25.188c-1.276 0-2.405-0.215-3.385-0.647-0.948-0.422-1.73-1.069-2.303-1.874l-0.012-0.017c-0.564-0.83-0.853-1.833-0.871-3.012h3.36c0.034 0.812 0.324 1.502 0.871 2.066 0.565 0.548 1.337 0.821 2.315 0.821 0.846 0 1.518-0.199 2.016-0.597 0.498-0.414 0.747-0.962 0.747-1.643 0-0.713-0.224-1.269-0.672-1.668-0.43-0.398-1.012-0.722-1.742-0.971l-2.34-0.796c-1.344-0.464-2.372-1.061-3.086-1.792-0.697-0.729-1.045-1.701-1.045-2.912-0.016-1.029 0.224-1.908 0.722-2.638 0.516-0.747 1.212-1.319 2.091-1.717 0.88-0.414 1.892-0.622 3.036-0.622 1.163 0 2.183 0.208 3.061 0.622 0.896 0.414 1.593 0.996 2.091 1.742 0.516 0.747 0.789 1.636 0.821 2.663h-3.41c-0.018-0.638-0.291-1.209-0.721-1.617l-0.001-0.001c-0.448-0.48-1.077-0.722-1.892-0.722-0.697-0.018-1.285 0.158-1.767 0.523-0.464 0.348-0.697 0.862-0.697 1.543 0 0.581 0.183 1.045 0.548 1.394 0.366 0.332 0.864 0.613 1.493 0.846 0.631 0.231 1.353 0.48 2.165 0.747 0.864 0.299 1.652 0.647 2.364 1.045 0.715 0.398 1.287 0.93 1.717 1.593 0.432 0.647 0.647 1.484 0.647 2.514 0 0.912-0.231 1.76-0.697 2.539-0.464 0.78-1.152 1.41-2.066 1.892-0.912 0.464-2.032 0.697-3.36 0.697zM99.396 24.889v-17.422h3.182v7.243h7.815v-7.243h3.186v17.422h-3.186v-7.591h-7.815v7.591h-3.186zM120.907 24.889v-17.422h3.188v7.243h7.813v-7.243h3.188v17.422h-3.186v-7.591h-7.815v7.591h-3.188zM136.364 24.889l6.372-17.422h3.584l6.372 17.422h-3.385l-1.394-4.032h-6.795l-1.42 4.032h-3.335zM141.989 18.368h5.052l-2.539-7.243-2.514 7.243zM153.94 24.889v-17.422h6.396c1.394 0 2.539 0.24 3.435 0.722 0.912 0.464 1.593 1.102 2.041 1.916 0.448 0.796 0.672 1.684 0.672 2.663 0 1.061-0.283 2.032-0.846 2.912-0.548 0.88-1.412 1.518-2.588 1.916l3.609 7.292h-3.659l-3.236-6.869h-2.638v6.869h-3.188zM157.125 15.68h3.012c1.061 0 1.842-0.258 2.34-0.772 0.498-0.516 0.747-1.195 0.747-2.041 0-0.83-0.249-1.493-0.747-1.991-0.482-0.498-1.269-0.747-2.364-0.747h-2.987v5.55zM172.894 24.889l-6.37-17.422h3.412l4.928 14.162 4.953-14.162h3.36l-6.375 17.422h-3.906zM184.251 24.889v-17.422h11.374v2.564h-8.188v4.779h7.442v2.489h-7.442v5.028h8.188v2.564h-11.374zM203.591 25.188c-1.276 0-2.405-0.215-3.385-0.647-0.947-0.423-1.729-1.069-2.303-1.874l-0.012-0.017c-0.564-0.83-0.853-1.833-0.871-3.012h3.36c0.034 0.812 0.324 1.502 0.871 2.066 0.565 0.548 1.337 0.821 2.315 0.821 0.846 0 1.518-0.199 2.016-0.597 0.498-0.414 0.747-0.962 0.747-1.643 0-0.713-0.224-1.269-0.672-1.668-0.43-0.398-1.012-0.722-1.742-0.971l-2.34-0.796c-1.344-0.464-2.372-1.061-3.086-1.792-0.697-0.729-1.045-1.701-1.045-2.912-0.016-1.029 0.224-1.908 0.722-2.638 0.525-0.748 1.233-1.336 2.059-1.705l0.032-0.013c0.88-0.414 1.892-0.622 3.036-0.622 1.163 0 2.183 0.208 3.061 0.622 0.896 0.414 1.593 0.996 2.091 1.742 0.516 0.747 0.789 1.636 0.821 2.663h-3.41c-0.017-0.638-0.29-1.21-0.721-1.617l-0.001-0.001c-0.448-0.48-1.077-0.722-1.892-0.722-0.697-0.018-1.285 0.158-1.767 0.523-0.464 0.348-0.697 0.862-0.697 1.543 0 0.581 0.183 1.045 0.548 1.394 0.366 0.332 0.864 0.613 1.493 0.846 0.631 0.231 1.353 0.48 2.165 0.747 0.864 0.299 1.652 0.647 2.364 1.045 0.715 0.398 1.287 0.93 1.717 1.593 0.432 0.647 0.647 1.484 0.647 2.514 0 0.912-0.231 1.76-0.697 2.539-0.464 0.78-1.152 1.41-2.066 1.892-0.912 0.464-2.032 0.697-3.36 0.697zM215.337 24.889v-14.859h-5.077v-2.564h13.365v2.564h-5.102v14.859h-3.186zM229.924 24.889v-17.422h6.994c1.81 0 3.186 0.423 4.132 1.269 0.964 0.83 1.444 1.9 1.444 3.211 0 1.095-0.299 1.973-0.896 2.638-0.557 0.625-1.285 1.086-2.11 1.312l-0.031 0.007c0.996 0.199 1.817 0.697 2.464 1.493 0.647 0.78 0.971 1.692 0.971 2.738 0 1.378-0.498 2.514-1.493 3.41s-2.405 1.344-4.231 1.344h-7.243zM233.109 14.784h3.335c0.896 0 1.586-0.208 2.066-0.622 0.482-0.414 0.722-1.004 0.722-1.767 0-0.729-0.24-1.303-0.722-1.717-0.464-0.432-1.17-0.647-2.116-0.647h-3.285v4.754zM233.109 22.3h3.559c0.946 0 1.676-0.215 2.19-0.647 0.532-0.448 0.796-1.070 0.796-1.867 0-0.812-0.274-1.452-0.821-1.916s-1.285-0.697-2.215-0.697h-3.509v5.127zM252.793 25.188c-1.742 0-3.268-0.382-4.58-1.145-1.292-0.768-2.331-1.839-3.040-3.119l-0.022-0.042c-0.729-1.36-1.095-2.928-1.095-4.704s0.366-3.335 1.095-4.679c0.725-1.333 1.765-2.413 3.024-3.165l0.037-0.021c1.312-0.764 2.837-1.145 4.58-1.145 1.726 0 3.244 0.382 4.555 1.145 1.304 0.763 2.347 1.846 3.040 3.143l0.021 0.043c0.731 1.344 1.095 2.903 1.095 4.679s-0.364 3.342-1.095 4.704c-0.72 1.329-1.761 2.403-3.023 3.14l-0.038 0.020c-1.31 0.764-2.828 1.145-4.555 1.145zM252.793 22.325c1.66 0 2.98-0.548 3.957-1.643 0.996-1.095 1.493-2.596 1.493-4.505 0-1.908-0.498-3.41-1.493-4.505-0.978-1.095-2.297-1.643-3.957-1.643-1.659 0-2.987 0.548-3.982 1.643s-1.493 2.596-1.493 4.505c0 1.908 0.498 3.41 1.493 4.505s2.324 1.643 3.982 1.643zM261.212 24.889l5.451-8.811-5.525-8.612h3.659l3.908 6.073 3.584-6.073h3.584l-5.451 8.761 5.575 8.661h-3.659l-3.957-6.148-3.584 6.148h-3.584z"></path>
    </symbol>
    <symbol id="icon-cross" viewBox="0 0 32 32">
      <path fill="none" stroke="#ae1332" style="stroke: var(--color1, #ae1332)" stroke-linejoin="round" stroke-linecap="round" stroke-miterlimit="4" stroke-width="2.6667" d="M24 8l-16 16M8 8l16 16"></path>
    </symbol>

     <!-- Footer -->

    <symbol id="icon-vector-6" viewBox="0 0 34 32">
    <path d="M30.082 0.314h-4.009c-1.237 0-2.24 0.983-2.24 2.195v3.929c0 1.212 1.003 2.195 2.24 2.195h4.009c1.237 0 2.24-0.983 2.24-2.195v-3.929c0-1.212-1.003-2.195-2.24-2.195z"></path>
    <path d="M7.25 11.582h-4.009c-1.237 0-2.24 0.983-2.24 2.195v3.929c0 1.212 1.003 2.195 2.24 2.195h4.009c1.237 0 2.24-0.983 2.24-2.195v-3.929c0-1.212-1.003-2.195-2.24-2.195z"></path>
    <path d="M7.73 23.040h-4.318c-1.332 0-2.412 0.983-2.412 2.195v3.929c0 1.213 1.080 2.195 2.412 2.195h4.318c1.332 0 2.412-0.983 2.412-2.195v-3.929c0-1.212-1.080-2.195-2.412-2.195z"></path>
    <path d="M18.766 22.978h-4.009c-1.237 0-2.24 0.983-2.24 2.195l-0 3.929c0 1.212 1.003 2.195 2.241 2.195h4.009c1.237 0 2.24-0.983 2.24-2.195v-3.929c0-1.213-1.003-2.195-2.24-2.195z"></path>
    <path d="M7.25 0.086h-4.009c-1.237 0-2.24 0.983-2.24 2.195v3.929c0 1.212 1.003 2.195 2.24 2.195h4.009c1.237 0 2.24-0.983 2.24-2.195v-3.929c0-1.212-1.003-2.195-2.24-2.195z"></path>
    <path d="M19.076 11.697h-4.009c-1.237 0-2.24 0.983-2.24 2.195v3.929c0 1.212 1.003 2.195 2.24 2.195h4.009c1.237 0 2.24-0.983 2.24-2.195v-3.929c0-1.212-1.003-2.195-2.24-2.195z"></path>
    <path d="M30.333 22.978h-4.010c-1.237 0-2.24 0.983-2.24 2.195v3.929c0 1.212 1.003 2.195 2.24 2.195h4.009c1.237 0 2.24-0.983 2.24-2.195v-3.929c0-1.213-1.003-2.195-2.24-2.195z"></path>
    <path d="M18.591 0.224h-4.009c-1.237 0-2.24 0.983-2.24 2.195v3.929c0 1.212 1.003 2.195 2.24 2.195h4.009c1.237 0 2.24-0.984 2.24-2.196v-3.929c0-1.212-1.003-2.195-2.24-2.195z"></path>
    <path d="M30.044 11.926h-4.010c-1.237 0-2.24 0.983-2.24 2.195v3.929c0 1.212 1.003 2.195 2.24 2.195h4.009c1.237 0 2.24-0.983 2.24-2.195v-3.929c0-1.212-1.003-2.195-2.24-2.195z"></path>
    </symbol>
    <symbol id="icon-facebook" viewBox="0 0 32 32">
    <path d="M19.52 4.64c0.24 0 0.48 0 0.96 0v3.6c-0.24 0-0.72 0-1.2 0s-0.96 0-1.2 0.24c-0.24 0.24-0.24 0.48-0.24 1.040 0 0.48 0 0.8 0 1.28h2.64v3.040h-2.64v13.2h-4.080v-13.28h-2.16v-3.040h2.16v-1.040c0-1.76 0.24-3.040 0.72-3.6 0.72-1.040 2.16-1.52 4.32-1.52 0.24 0.080 0.48 0.080 0.72 0.080z"></path>
    </symbol>
    <symbol id="icon-instagram" viewBox="0 0 32 32">
    <path d="M28.717 10.756c-0.016-1.074-0.215-2.14-0.596-3.145-0.667-1.716-2.024-3.073-3.743-3.737-0.994-0.373-2.044-0.573-3.108-0.596-1.367-0.061-1.801-0.078-5.273-0.078s-3.916 0-5.274 0.078c-1.062 0.023-2.112 0.223-3.106 0.596-1.719 0.664-3.078 2.021-3.743 3.737-0.374 0.992-0.576 2.041-0.596 3.101-0.061 1.367-0.080 1.8-0.080 5.265s0 3.909 0.080 5.265c0.021 1.062 0.222 2.109 0.596 3.104 0.667 1.714 2.024 3.071 3.744 3.735 0.989 0.386 2.040 0.605 3.106 0.639 1.369 0.061 1.803 0.079 5.274 0.079s3.917 0 5.274-0.079c1.062-0.021 2.112-0.221 3.108-0.595 1.719-0.666 3.076-2.022 3.743-3.737 0.374-0.993 0.574-2.041 0.596-3.104 0.061-1.365 0.080-1.798 0.080-5.265-0.003-3.466-0.003-3.906-0.082-5.264zM15.99 22.531c-3.631 0-6.572-2.936-6.572-6.561s2.941-6.561 6.572-6.561c3.628 0 6.572 2.936 6.572 6.561s-2.944 6.561-6.572 6.561zM22.823 10.696c-0.849 0-1.532-0.684-1.532-1.53s0.684-1.53 1.532-1.53c0.846 0 1.531 0.684 1.531 1.53s-0.685 1.53-1.531 1.53z"></path>
    <path d="M15.992 19.976c2.211 0 4.004-1.793 4.004-4.004s-1.793-4.004-4.004-4.004c-2.211 0-4.004 1.793-4.004 4.004s1.793 4.004 4.004 4.004z"></path>
    </symbol>
    <symbol id="icon-youtube" viewBox="0 0 32 32">
    <path d="M24.24 6c-1.36-0.080-4.16-0.16-8.4-0.16h-0.56c-4.080 0-6.8 0.080-8.16 0.24-1.84 0.16-3.12 0.64-3.84 1.28-0.64 0.56-1.12 1.6-1.28 2.96-0.080 0.88-0.16 2.72-0.16 5.52v0.4c0 2.64 0.080 4.48 0.24 5.36 0.24 1.28 0.64 2.24 1.44 2.8 0.8 0.64 2.16 1.040 4.080 1.2 1.36 0.080 4.16 0.16 8.4 0.16h0.56c4.080 0 6.8-0.080 8.16-0.24 1.84-0.16 3.12-0.64 3.84-1.28 0.64-0.56 1.12-1.6 1.28-2.96 0.080-0.88 0.16-2.72 0.16-5.52v-0.4c0-2.64-0.080-4.48-0.24-5.36-0.24-1.28-0.64-2.24-1.44-2.8-0.8-0.64-2.16-1.040-4.080-1.2zM21.12 15.84l-8.8 5.28v-10.56l8.8 5.28z"></path>
    </symbol>

   </defs>
</svg>