<svg width="156" height="18" viewBox="0 0 156 18" fill="none" xmlns="http://www.w3.org/2000/svg">
<path d="M14.5411 1.15692H12.5364C11.9178 1.15692 11.4163 1.64835 11.4163 2.25459V4.21923C11.4163 4.82547 11.9178 5.31692 12.5364 5.31692H14.5411C15.1597 5.31692 15.6612 4.82547 15.6612 4.21923V2.25459C15.6612 1.64835 15.1597 1.15692 14.5411 1.15692Z" fill="#AE1332"/>
<path d="M3.36519 12.52H1.20624C0.540049 12.52 0 13.0115 0 13.6177V15.5823C0 16.1886 0.540049 16.68 1.20624 16.68H3.36519C4.03138 16.68 4.57143 16.1886 4.57143 15.5823V13.6177C4.57143 13.0115 4.03138 12.52 3.36519 12.52Z" fill="#AE1332"/>
<path d="M3.1248 6.79091H1.12007C0.501486 6.79091 0 7.28233 0 7.88857V9.85321C0 10.4595 0.501599 10.9509 1.12018 10.9509H3.1248C3.74341 10.9509 4.2449 10.4595 4.2449 9.85321V7.88857C4.2449 7.28233 3.74341 6.79091 3.1248 6.79091Z" fill="#AE1332"/>
<path d="M8.88295 12.4891H6.87822C6.25964 12.4891 5.75815 12.9805 5.75815 13.5868L5.75804 15.5514C5.75804 16.1576 6.25975 16.6491 6.87833 16.6491H8.88295C9.50157 16.6491 10.0031 16.1576 10.0031 15.5514V13.5868C10.0031 12.9805 9.50157 12.4891 8.88295 12.4891Z" fill="#AE1332"/>
<path d="M3.1248 1.04314H1.12007C0.501486 1.04314 0 1.53456 0 2.1408V4.10544C0 4.71168 0.501599 5.20314 1.12018 5.20314H3.1248C3.74341 5.20314 4.2449 4.71168 4.2449 4.10544V2.1408C4.2449 1.53456 3.74341 1.04314 3.1248 1.04314Z" fill="#AE1332"/>
<path d="M9.03794 6.84874H7.03321C6.41463 6.84874 5.91314 7.34016 5.91314 7.9464V9.91104C5.91314 10.5173 6.41474 11.0087 7.03332 11.0087H9.03794C9.65655 11.0087 10.158 10.5173 10.158 9.91104V7.9464C10.158 7.34016 9.65655 6.84874 9.03794 6.84874Z" fill="#AE1332"/>
<path d="M14.6667 12.4891H12.6619C12.0434 12.4891 11.5419 12.9805 11.5419 13.5868V15.5514C11.5419 16.1576 12.0435 16.6491 12.662 16.6491H14.6667C15.2853 16.6491 15.7868 16.1576 15.7868 15.5514V13.5868C15.7868 12.9805 15.2853 12.4891 14.6667 12.4891Z" fill="#AE1332"/>
<path d="M8.7953 1.11185H6.79056C6.17198 1.11185 5.6705 1.60328 5.6705 2.20952V4.17416C5.6705 4.7804 6.1721 5.27185 6.79068 5.27185H8.7953C9.41391 5.27185 9.91539 4.78003 9.91539 4.17379V2.20952C9.91539 1.60328 9.41391 1.11185 8.7953 1.11185Z" fill="#AE1332"/>
<path d="M14.5219 6.96291H12.5171C11.8985 6.96291 11.3971 7.45433 11.3971 8.06057V10.0252C11.3971 10.6315 11.8987 11.1229 12.5172 11.1229H14.5219C15.1405 11.1229 15.642 10.6315 15.642 10.0252V8.06057C15.642 7.45433 15.1405 6.96291 14.5219 6.96291Z" fill="#AE1332"/>
<path d="M25.2679 14V4.2H31.5959V5.642H27.0599V8.386H30.7279V9.8H27.0599V14H25.2679ZM32.4189 14V4.2H36.0169C36.8009 4.2 37.4449 4.33533 37.9489 4.606C38.4622 4.86733 38.8449 5.22667 39.0969 5.684C39.3489 6.132 39.4749 6.63133 39.4749 7.182C39.4749 7.77933 39.3162 8.32533 38.9989 8.82C38.6909 9.31467 38.2055 9.674 37.5429 9.898L39.5729 14H37.5149L35.6949 10.136H34.2109V14H32.4189ZM34.2109 8.82H35.9049C36.5022 8.82 36.9409 8.67533 37.2209 8.386C37.5009 8.09667 37.6409 7.714 37.6409 7.238C37.6409 6.77133 37.5009 6.398 37.2209 6.118C36.9502 5.838 36.5069 5.698 35.8909 5.698H34.2109V8.82ZM40.5815 14V4.2H46.9795V5.642H42.3735V8.33H46.5595V9.73H42.3735V12.558H46.9795V14H40.5815ZM51.4613 14.168C50.7426 14.168 50.108 14.0467 49.5573 13.804C49.0066 13.552 48.5726 13.1973 48.2553 12.74C47.938 12.2733 47.7746 11.7087 47.7653 11.046H49.6553C49.674 11.5033 49.8373 11.8907 50.1453 12.208C50.4626 12.516 50.8966 12.67 51.4473 12.67C51.9233 12.67 52.3013 12.558 52.5813 12.334C52.8613 12.1007 53.0013 11.7927 53.0013 11.41C53.0013 11.0087 52.8753 10.696 52.6233 10.472C52.3806 10.248 52.054 10.066 51.6433 9.926C51.2326 9.786 50.794 9.63667 50.3273 9.478C49.5713 9.21667 48.9926 8.88067 48.5913 8.47C48.1993 8.05933 48.0033 7.51333 48.0033 6.832C47.994 6.25333 48.1293 5.75867 48.4093 5.348C48.6986 4.928 49.0906 4.606 49.5853 4.382C50.08 4.14867 50.6493 4.032 51.2933 4.032C51.9466 4.032 52.5206 4.14867 53.0153 4.382C53.5193 4.61533 53.9113 4.942 54.1913 5.362C54.4806 5.782 54.6346 6.28133 54.6533 6.86H52.7353C52.726 6.51467 52.5906 6.21133 52.3293 5.95C52.0773 5.67933 51.7226 5.544 51.2653 5.544C50.8733 5.53467 50.542 5.63267 50.2713 5.838C50.01 6.034 49.8793 6.32333 49.8793 6.706C49.8793 7.03267 49.982 7.294 50.1873 7.49C50.3926 7.67667 50.6726 7.83533 51.0273 7.966C51.382 8.09667 51.788 8.23667 52.2453 8.386C52.7306 8.554 53.174 8.75 53.5753 8.974C53.9766 9.198 54.2986 9.49667 54.5413 9.87C54.784 10.234 54.9053 10.7053 54.9053 11.284C54.9053 11.7973 54.7746 12.2733 54.5133 12.712C54.252 13.1507 53.8646 13.5053 53.3513 13.776C52.838 14.0373 52.208 14.168 51.4613 14.168ZM55.9088 14V4.2H57.7008V8.274H62.0968V4.2H63.8888V14H62.0968V9.73H57.7008V14H55.9088ZM68.0095 14V4.2H69.8015V8.274H74.1975V4.2H75.9895V14H74.1975V9.73H69.8015V14H68.0095ZM76.7043 14L80.2883 4.2H82.3043L85.8883 14H83.9843L83.2003 11.732H79.3783L78.5803 14H76.7043ZM79.8683 10.332H82.7103L81.2823 6.258L79.8683 10.332ZM86.5907 14V4.2H90.1887C90.9727 4.2 91.6167 4.33533 92.1207 4.606C92.634 4.86733 93.0167 5.22667 93.2687 5.684C93.5207 6.132 93.6467 6.63133 93.6467 7.182C93.6467 7.77933 93.488 8.32533 93.1707 8.82C92.8627 9.31467 92.3773 9.674 91.7147 9.898L93.7447 14H91.6867L89.8667 10.136H88.3827V14H86.5907ZM88.3827 8.82H90.0767C90.674 8.82 91.1127 8.67533 91.3927 8.386C91.6727 8.09667 91.8127 7.714 91.8127 7.238C91.8127 6.77133 91.6727 6.398 91.3927 6.118C91.122 5.838 90.6787 5.698 90.0627 5.698H88.3827V8.82ZM97.2535 14L93.6695 4.2H95.5875L98.3595 12.166L101.146 4.2H103.036L99.4515 14H97.2535ZM103.641 14V4.2H110.039V5.642H105.433V8.33H109.619V9.73H105.433V12.558H110.039V14H103.641ZM114.52 14.168C113.802 14.168 113.167 14.0467 112.616 13.804C112.066 13.552 111.632 13.1973 111.314 12.74C110.997 12.2733 110.834 11.7087 110.824 11.046H112.714C112.733 11.5033 112.896 11.8907 113.204 12.208C113.522 12.516 113.956 12.67 114.506 12.67C114.982 12.67 115.36 12.558 115.64 12.334C115.92 12.1007 116.06 11.7927 116.06 11.41C116.06 11.0087 115.934 10.696 115.682 10.472C115.44 10.248 115.113 10.066 114.702 9.926C114.292 9.786 113.853 9.63667 113.386 9.478C112.63 9.21667 112.052 8.88067 111.65 8.47C111.258 8.05933 111.062 7.51333 111.062 6.832C111.053 6.25333 111.188 5.75867 111.468 5.348C111.758 4.928 112.15 4.606 112.644 4.382C113.139 4.14867 113.708 4.032 114.352 4.032C115.006 4.032 115.58 4.14867 116.074 4.382C116.578 4.61533 116.97 4.942 117.25 5.362C117.54 5.782 117.694 6.28133 117.712 6.86H115.794C115.785 6.51467 115.65 6.21133 115.388 5.95C115.136 5.67933 114.782 5.544 114.324 5.544C113.932 5.53467 113.601 5.63267 113.33 5.838C113.069 6.034 112.938 6.32333 112.938 6.706C112.938 7.03267 113.041 7.294 113.246 7.49C113.452 7.67667 113.732 7.83533 114.086 7.966C114.441 8.09667 114.847 8.23667 115.304 8.386C115.79 8.554 116.233 8.75 116.634 8.974C117.036 9.198 117.358 9.49667 117.6 9.87C117.843 10.234 117.964 10.7053 117.964 11.284C117.964 11.7973 117.834 12.2733 117.572 12.712C117.311 13.1507 116.924 13.5053 116.41 13.776C115.897 14.0373 115.267 14.168 114.52 14.168ZM121.127 14V5.642H118.271V4.2H125.789V5.642H122.919V14H121.127ZM129.332 14V4.2H133.266C134.284 4.2 135.058 4.438 135.59 4.914C136.132 5.38067 136.402 5.98267 136.402 6.72C136.402 7.336 136.234 7.83067 135.898 8.204C135.572 8.568 135.17 8.81533 134.694 8.946C135.254 9.058 135.716 9.338 136.08 9.786C136.444 10.2247 136.626 10.738 136.626 11.326C136.626 12.1007 136.346 12.74 135.786 13.244C135.226 13.748 134.433 14 133.406 14H129.332ZM131.124 8.316H133C133.504 8.316 133.892 8.19933 134.162 7.966C134.433 7.73267 134.568 7.40133 134.568 6.972C134.568 6.56133 134.433 6.23933 134.162 6.006C133.901 5.76333 133.504 5.642 132.972 5.642H131.124V8.316ZM131.124 12.544H133.126C133.658 12.544 134.069 12.4227 134.358 12.18C134.657 11.928 134.806 11.578 134.806 11.13C134.806 10.6727 134.652 10.3133 134.344 10.052C134.036 9.79067 133.621 9.66 133.098 9.66H131.124V12.544ZM142.196 14.168C141.216 14.168 140.358 13.9533 139.62 13.524C138.892 13.0947 138.318 12.502 137.898 11.746C137.488 10.9807 137.282 10.0987 137.282 9.1C137.282 8.10133 137.488 7.224 137.898 6.468C138.318 5.70267 138.892 5.10533 139.62 4.676C140.358 4.24667 141.216 4.032 142.196 4.032C143.167 4.032 144.021 4.24667 144.758 4.676C145.496 5.10533 146.07 5.70267 146.48 6.468C146.891 7.224 147.096 8.10133 147.096 9.1C147.096 10.0987 146.891 10.9807 146.48 11.746C146.07 12.502 145.496 13.0947 144.758 13.524C144.021 13.9533 143.167 14.168 142.196 14.168ZM142.196 12.558C143.13 12.558 143.872 12.25 144.422 11.634C144.982 11.018 145.262 10.1733 145.262 9.1C145.262 8.02667 144.982 7.182 144.422 6.566C143.872 5.95 143.13 5.642 142.196 5.642C141.263 5.642 140.516 5.95 139.956 6.566C139.396 7.182 139.116 8.02667 139.116 9.1C139.116 10.1733 139.396 11.018 139.956 11.634C140.516 12.25 141.263 12.558 142.196 12.558ZM146.932 14L149.998 9.044L146.89 4.2H148.948L151.146 7.616L153.162 4.2H155.178L152.112 9.128L155.248 14H153.19L150.964 10.542L148.948 14H146.932Z" fill="#AE1332"/>
</svg>
